<?xml version="1.0" encoding="utf-8"?>
<!-- Generator: Adobe Illustrator 23.1.0, SVG Export Plug-In . SVG Version: 6.00 Build 0)  -->
<svg version="1.1" id="Layer_1" xmlns="http://www.w3.org/2000/svg" xmlns:xlink="http://www.w3.org/1999/xlink" x="0px" y="0px"
	 viewBox="0 0 12 13.2" style="enable-background:new 0 0 12 13.2;" xml:space="preserve">
<style type="text/css">
	.st0{fill:#AD343E;}
	.st1{fill:#F2AF29;}
</style>
<title>sacha</title>
<path class="st0" d="M4.6,6.6V0.8c0-0.1,0-0.2,0-0.3C4.6,0.2,4.9,0,5.2,0c0.3,0,0.5,0.2,0.6,0.5c0,0.1,0,0.2,0,0.2v2.3
	c0,0.1,0,0.2,0,0.2c0,0.2,0.2,0.4,0.4,0.4c0.2,0,0.4-0.2,0.4-0.4c0,0,0,0,0,0c0-0.2,0-0.4,0-0.6s0-0.2,0-0.3c0-0.3,0.2-0.5,0.5-0.5
	c0.1,0,0.2,0,0.3,0c0.2,0,0.4,0.2,0.4,0.4c0,0.1,0,0.1,0,0.2v8.1c0,0.1,0,0.1,0,0.2c0,0.1,0,0.1-0.1,0.2c-0.1,0.2-0.4,0.3-0.6,0.3
	c-0.2,0-0.4-0.2-0.4-0.4c0-0.1,0-0.1,0-0.2V10c0-0.1,0-0.2,0-0.2C6.5,9.5,6.3,9.4,6.1,9.5c-0.2,0-0.3,0.2-0.4,0.4c0,0.1,0,0.2,0,0.3
	v2.3c0,0.1,0,0.2,0,0.3c0,0.3-0.3,0.5-0.6,0.5c-0.3,0-0.5-0.2-0.6-0.5c0-0.1,0-0.3,0-0.4L4.6,6.6z M6.7,6.6V5.2c0-0.1,0-0.2,0-0.3
	c0-0.2-0.2-0.3-0.4-0.3C6.1,4.6,6,4.7,5.9,4.9c0,0.1,0,0.2,0,0.2v2.8c0,0.1,0,0.2,0,0.3c0,0.2,0.2,0.3,0.4,0.3
	c0.2,0,0.3-0.2,0.3-0.3c0-0.1,0-0.2,0-0.2V6.6z"/>
<path class="st1" d="M3.5,6.6v2c0,0.1,0,0.2,0,0.3c0,0.3-0.3,0.5-0.5,0.5c-0.3,0-0.5-0.2-0.6-0.5V4.4c0-0.3,0.3-0.5,0.6-0.5
	c0,0,0,0,0,0c0.3,0,0.5,0.2,0.6,0.5c0,0.1,0,0.2,0,0.3L3.5,6.6z"/>
<path class="st1" d="M10.1,6.6c0,0.4,0,0.7,0,1.1c0,0.1,0,0.2,0,0.3C10,8.2,9.8,8.4,9.6,8.4C9.3,8.3,9.1,8.2,9.1,8
	c0-0.1,0-0.2,0-0.3V5.5c0-0.1,0-0.2,0-0.3C9.1,5,9.3,4.9,9.6,4.8c0.3,0,0.5,0.2,0.6,0.4c0,0.1,0,0.2,0,0.3
	C10.1,5.9,10.1,6.2,10.1,6.6z"/>
<path class="st1" d="M1.1,6.6c0,0.2,0,0.4,0,0.6c0,0.3-0.2,0.6-0.5,0.6C0.3,7.8,0.1,7.6,0,7.3c0-0.1,0-0.1,0-0.2V6
	c0-0.3,0.2-0.6,0.5-0.6s0.6,0.2,0.6,0.5c0,0.1,0,0.1,0,0.2C1.1,6.2,1.1,6.4,1.1,6.6L1.1,6.6z"/>
<path class="st1" d="M12,6.6c0,0.3-0.3,0.5-0.6,0.5c-0.3,0-0.5-0.2-0.5-0.5c0-0.3,0.3-0.5,0.6-0.5C11.8,6.1,12,6.3,12,6.6z"/>
</svg>
